# AST/ASF file generated using VICON BodyLanguage
# -----------------------------------------------
:version 1.10
:name VICON
:units
  mass 1.0
  length 0.45
  angle deg
:documentation
   .ast/.asf automatically generated from VICON data using
   VICON BodyBuilder and BodyLanguage model FoxedUp or BRILLIANT.MOD
:root
   order TX TY TZ RX RY RZ
   axis XYZ
   position 0 0 0  
   orientation 0 0 0 
:bonedata
  begin
     id 1 
     name lhipjoint
     direction 0.714689 -0.624256 0.315473 
     length 2.45343 
     axis 0 0 0  XYZ
  end
  begin
     id 2 
     name lfemur
     direction 0.34202 -0.939693 0  
     length 6.59069  
     axis 0 0 20  XYZ
    dof rx ry rz
    limits (-160.0 20.0)
           (-70.0 70.0)
           (-60.0 70.0)
  end
  begin
     id 3 
     name ltibia
     direction 0.34202 -0.939693 0   
     length 6.73476   
     axis 0 0 20   XYZ
    dof rx
    limits (-10.0 170.0)
  end
  begin
     id 4 
     name lfoot
     direction 0.0718085 -0.197292 0.977711   
     length 1.52607   
     axis -90 7.62852e-016 20   XYZ
    dof rx rz
    limits (-45.0 90.0)
           (-70.0 20.0)
  end
  begin
     id 5 
     name ltoes
     direction 1.53553e-011 -4.22024e-011 1   
     length 0.777832   
     axis -90 7.62852e-016 20   XYZ
    dof rx
    limits (-90.0 20.0)
  end
  begin
     id 6 
     name rhipjoint
     direction -0.727419 -0.612432 0.309497   
     length 2.50079  
     axis 0 0 0  XYZ 
  end
  begin
     id 7 
     name rfemur
     direction -0.34202 -0.939693 0   
     length 6.51665   
     axis 0 0 -20   XYZ
    dof rx ry rz
    limits (-160.0 20.0)
           (-70.0 70.0)
           (-70.0 60.0)
  end
  begin
     id 8 
     name rtibia
     direction -0.34202 -0.939693 0   
     length 6.48919   
     axis 0 0 -20   XYZ
    dof rx
    limits (-10.0 170.0)
 end
 begin
     id 9 
     name rfoot
     direction -0.112205 -0.308282 0.944655   
     length 1.68717  
     axis -90 -7.62852e-016 -20   XYZ
    dof rx rz
    limits (-45.0 90.0)
           (-20.0 70.0)
  end
  begin
     id 10 
     name rtoes
     direction -1.53583e-011 -4.21993e-011 1   
     length 0.846859   
     axis -90 -7.62852e-016 -20   XYZ
    dof rx
    limits (-90.0 20.0)
  end
  begin
     id 11 
     name lowerback
     direction -0.00119603 0.996364 -0.0851956   
     length 1.67242   
     axis 0 0 0   XYZ
    dof rx ry rz
    limits (-20.0 45.0)
           (-30.0 30.0)
           (-30.0 30.0)
  end
  begin
     id 12 
     name upperback
     direction -0.00531001 0.998318 0.0577248   
     length 1.64819   
     axis 0 0 0   XYZ
    dof rx ry rz
    limits (-20.0 45.0)
           (-30.0 30.0)
           (-30.0 30.0)
  end
  begin
     id 13 
     name thorax
     direction -0.00653676 0.995132 0.0983291   
     length 1.67429   
     axis 0 0 0   XYZ
    dof rx ry rz
    limits (-20.0 45.0)
           (-30.0 30.0)
           (-30.0 30.0)
  end
  begin
     id 14 
     name lowerneck
     direction 0.0141424 0.999886 0.00525412   
     length 1.59623   
     axis 0 0 0   XYZ
    dof rx ry rz
    limits (-20.0 45.0)
           (-30.0 30.0)
           (-30.0 30.0)
  end
  begin
     id 15 
     name upperneck
     direction -0.0640064 0.987178 -0.146232   
     length 1.59576   
     axis 0 0 0   XYZ
    dof rx ry rz
    limits (-20.0 45.0)
           (-30.0 30.0)
           (-30.0 30.0)
  end
  begin
     id 16
     name head
     direction -0.0222942 0.998496 -0.0500859  
     length 1.60959  
     axis 0 0 0   XYZ
    dof rx ry rz
    limits (-20.0 45.0)
           (-30.0 30.0)
           (-30.0 30.0)
  end
  begin
     id 17 
     name lclavicle
     direction 0.908549 0.392612 0.142806  
     length 2.80649  
     axis 0 0 0   XYZ
    dof ry rz
    limits (-20.0 10.0)
           (0.0 20.0)
  end
  begin
     id 18 
     name lhumerus
     direction 1 -4.48968e-011 1.08832e-028   
     length 4.2884   
     axis -180 -30 -90   XYZ
    dof rx ry rz
    limits (-60.0 90.0)
           (-90.0 90.0)
           (-90.0 90.0)
  end
  begin
     id 19
     name lradius
     direction 1 -4.48952e-011 -3.02642e-028   
     length 3.06552   
     axis -180 -30 -90   XYZ
    dof rx
    limits (-10.0 170.0)
  end
  begin
     id 20
     name lwrist
     direction 1 -4.49014e-011 1.58672e-027   
     length 1.53276   
     axis -1.65735e-015 90 90   XYZ
    dof ry
    limits (-180.0 0.0)
 end
  begin
     id 21 
     name lhand
     direction 1 -4.48928e-011 3.17344e-027   
     length 0.753045   
     axis -2.02492e-015 90 90   XYZ
    dof rx rz
    limits (-90.0 90.0)
           (-45.0 45.0)
  end
  begin
     id 22 
     name lfingers
     direction 1 -4.48958e-011 6.34687e-027   
     length 0.607124   
     axis -4.04985e-015 90 90   XYZ
    dof rx
    limits (0.0 90.0)
  end
  begin
     id 23
     name lthumb
     direction 0.707107 -6.34905e-011 0.707107   
     length 0.871712   
     axis -90 45 2.85299e-015   XYZ
    dof rx rz
    limits (-45.0 45.0)
           (-45.0 45.0)
  end
  begin
     id 24 
     name rclavicle
     direction -0.885098 0.45949 0.0739604   
     length 2.9478  
     axis 0 0 0   XYZ 
    dof ry rz
    limits (-10.0 20.0)
           (-20.0 0.0)
  end
  begin
     id 25 
     name rhumerus
     direction -1 -4.4898e-011 -2.61739e-027  
     length 4.52172   
     axis -180 30 90   XYZ
    dof rx ry rz
    limits (-90.0 60.0)
           (-90.0 90.0)
           (-90.0 90.0)
  end
  begin
     id 26 
     name rradius
     direction -1 -4.48945e-011 9.02552e-028   
     length 2.8914   
     axis -180 30 90   XYZ
    dof rx
    limits (-10.0 170.0)
  end
  begin
     id 27 
     name rwrist
     direction -1 -4.49018e-011 1.58672e-027   
     length 1.4457   
     axis -1.65735e-015 -90 -90   XYZ
    dof ry
    limits (-180.0 0.0)
  end
  begin
     id 28
     name rhand
     direction -1 -4.48825e-011 3.17344e-027   
     length 0.680541   
     axis -2.02492e-015 -90 -90   XYZ
    dof rx rz
    limits (-90.0 90.0)
           (-45.0 45.0)
  end
  begin
     id 29
     name rfingers
     direction -1 -4.49067e-011 6.34687e-027   
     length 0.54867   
     axis -4.04985e-015 -90 -90   XYZ
    dof rx
    limits (0.0 90.0)
  end
  begin
     id 30
     name rthumb
     direction -0.707107 -6.34833e-011 0.707107   
     length 0.787783   
     axis -90 -45 -2.85299e-015   XYZ
    dof rx rz
    limits (-45.0 45.0)
           (-45.0 45.0)
  end
:hierarchy
  begin
    root lhipjoint rhipjoint lowerback
    lhipjoint lfemur
    lfemur ltibia
    ltibia lfoot
    lfoot ltoes
    rhipjoint rfemur
    rfemur rtibia
    rtibia rfoot
    rfoot rtoes
    lowerback upperback
    upperback thorax
    thorax lowerneck lclavicle rclavicle
    lowerneck upperneck
    upperneck head
    lclavicle lhumerus
    lhumerus lradius
    lradius lwrist
    lwrist lhand lthumb
    lhand lfingers
    rclavicle rhumerus
    rhumerus rradius
    rradius rwrist
    rwrist rhand rthumb
    rhand rfingers
  end

#!OML:ASF E:\emotionWalksFemale\Project 1\Capture day 1\Session 1\Female1.ASF
:FULLY-SPECIFIED
:DEGREES
32
root 9.22714 15.5084 23.2995 179.436 -4.51225 -179.333
lowerback 7.61204 3.39111 3.64985
upperback -4.84503 4.87605 -0.163524
thorax -9.09871 2.09271 -2.94511
lowerneck 0.0653582 16.5364 9.74716
upperneck 2.11266 22.2774 -8.89363
head 2.67453 11.0694 -3.20697
rclavicle -4.00924e-014 -6.75868e-015
rhumerus -48.5417 12.1782 -98.1555
rradius 35.3238
rwrist 13.1238
rhand 1.16367 -58.4406
rfingers 7.12502
rthumb 26.7045 -86.5764
lclavicle -4.00924e-014 -6.75868e-015
lhumerus -42.745 -12.2498 94.4261
lradius 33.952
lwrist -17.451
lhand -6.97884 -39.9751
lfingers 7.12502
lthumb 18.8912 -10.8724
rfemur 2.98431 14.3782 27.1017
rtibia 12.9571
rfoot -15.8586 -32.8145
rtoes 5.63839
lfemur -6.34686 -21.5592 -21.6444
ltibia 23.5387
lfoot -18.3244 15.8392
ltoes -43.0456
33
root 9.22782 15.5075 23.2989 179.47 -4.43077 -179.325
lowerback 7.51745 3.4249 3.60683
upperback -4.80814 4.91507 -0.121521
thorax -9.0069 2.11971 -2.87357
lowerneck -0.416862 16.5902 9.54293
upperneck 2.55016 22.3264 -8.59936
head 2.8298 11.0798 -3.03769
rclavicle -3.96078e-014 3.37934e-015
rhumerus -48.427 12.2316 -98.1018
rradius 35.0517
rwrist 13.5353
rhand 0.798635 -57.9893
rfingers 7.12502
rthumb 26.3551 -86.1779
lclavicle -3.96078e-014 3.37934e-015
lhumerus -42.5711 -12.323 94.5364
lradius 34.0435
lwrist -16.862
lhand -5.96655 -39.4279
lfingers 7.12502
lthumb 19.8645 -10.4231
rfemur 2.93912 14.4814 27.1087
rtibia 12.9534
rfoot -15.8336 -32.87
rtoes 5.89544
lfemur -6.369 -21.5662 -21.626
ltibia 23.5257
lfoot -18.1484 15.7649
ltoes -42.4396
34
root 9.2284 15.5082 23.2974 179.532 -4.37951 -179.293
lowerback 7.31505 3.46472 3.55373
upperback -4.75666 4.95673 -0.0609766
thorax -8.83821 2.15176 -2.76836
lowerneck -1.59538 16.7516 9.13108
upperneck 3.74733 22.4874 -7.7765
head 3.24893 11.1306 -2.59618
rclavicle -3.59303e-014 -6.65929e-015
rhumerus -48.3805 12.2355 -97.9478
rradius 34.5119
rwrist 15.3058
rhand 0.770933 -56.858
rfingers 7.12502
rthumb 26.3286 -85.0505
lclavicle -3.59303e-014 -6.65929e-015
lhumerus -42.3675 -12.3742 94.6415
lradius 33.9511
lwrist -16.6531
lhand -5.67158 -39.1939
lfingers 7.12502
lthumb 20.148 -10.2187
rfemur 2.86135 14.5444 27.1251
rtibia 12.9558
rfoot -15.7235 -32.9129
rtoes 5.60023
lfemur -6.41708 -21.5921 -21.5753
ltibia 23.5073
lfoot -17.9866 15.8466
ltoes -42.4049
35
root 9.22851 15.5099 23.2958 179.55 -4.40203 -179.284
lowerback 7.30042 3.46358 3.55924
upperback -4.78465 4.95417 -0.0627475
thorax -8.85974 2.14839 -2.77298
lowerneck -0.396075 16.5126 9.65414
upperneck 2.4604 22.2291 -8.85462
head 2.83292 11.028 -3.13212
rclavicle -5.46658e-016 2.78299e-015
rhumerus -48.3508 12.1279 -97.8417
rradius 34.9407
rwrist 14.57
rhand 2.06389 -57.8605
rfingers 7.12502
rthumb 27.5657 -85.8619
lclavicle -5.46658e-016 2.78299e-015
lhumerus -42.4127 -12.466 94.7251
lradius 34.2336
lwrist -15.9373
lhand -4.49148 -38.4176
lfingers 7.12502
lthumb 21.2819 -9.56609
rfemur 2.84411 14.5779 27.1327
rtibia 12.9601
rfoot -15.7 -32.9459
rtoes 5.49019
lfemur -6.42809 -21.6122 -21.563
ltibia 23.4936
lfoot -17.9696 15.9574
ltoes -42.9995
36
root 9.22901 15.5121 23.2952 179.58 -4.44263 -179.333
lowerback 7.35835 3.44029 3.56897
upperback -4.84738 4.92122 -0.126271
thorax -8.95814 2.12469 -2.84804
lowerneck -0.0706508 16.421 9.81347
upperneck 2.12427 22.1209 -9.10653
head 2.71747 10.9834 -3.27145
rclavicle -1.19892e-014 -3.77691e-015
rhumerus -48.4294 12.1365 -97.9591
rradius 34.5383
rwrist 15.1169
rhand -0.0751941 -56.5483
rfingers 7.12502
rthumb 25.5183 -84.8594
lclavicle -1.19892e-014 -3.77691e-015
lhumerus -42.4967 -12.309 94.5035
lradius 33.757
lwrist -17.2276
lhand -6.39737 -39.7604
lfingers 7.12502
lthumb 19.4503 -10.7132
rfemur 2.83466 14.5885 27.084
rtibia 12.9752
rfoot -15.8342 -32.9528
rtoes 5.8949
lfemur -6.44354 -21.6022 -21.6016
ltibia 23.4744
lfoot -18.1758 15.7441
ltoes -42.6508
37
root 9.22964 15.513 23.2945 179.617 -4.45255 -179.376
lowerback 7.36262 3.43155 3.58906
upperback -4.88376 4.90648 -0.190457
thorax -8.99411 2.1119 -2.9269
lowerneck -0.107253 16.4046 9.74771
upperneck 2.12021 22.0901 -8.95491
head 2.69449 10.9702 -3.22374
rclavicle -5.2094e-014 1.49089e-015
rhumerus -48.5541 12.2968 -98.2615
rradius 34.6296
rwrist 14.6897
rhand -1.44582 -56.2297
rfingers 7.12502
rthumb 24.2048 -84.7222
lclavicle -5.2094e-014 1.49089e-015
lhumerus -42.5364 -12.4657 94.5655
lradius 34.0468
lwrist -16.5054
lhand -5.42115 -39.0623
lfingers 7.12502
lthumb 20.3887 -10.1127
rfemur 2.78226 14.5601 27.0324
rtibia 13.0391
rfoot -15.9076 -32.9257
rtoes 5.65662
lfemur -6.45156 -21.6008 -21.6332
ltibia 23.4348
lfoot -18.3059 15.5324
ltoes -41.6773
38
root 9.22912 15.5121 23.292 179.626 -4.42864 -179.4
lowerback 7.32408 3.43891 3.612
upperback -4.88721 4.91411 -0.226935
thorax -8.96953 2.11365 -2.97644
lowerneck -0.145986 16.3868 9.68606
upperneck 2.13269 22.0588 -8.81748
head 2.679 10.9562 -3.17925
rclavicle 3.19981e-014 5.56597e-015
rhumerus -48.6143 12.3617 -98.3826
rradius 34.6884
rwrist 14.5663
rhand -1.76067 -56.2669
rfingers 7.12502
rthumb 23.9029 -84.7993
lclavicle 3.19981e-014 5.56597e-015
lhumerus -42.577 -12.5996 94.6106
lradius 34.1354
lwrist -16.2651
lhand -5.32268 -38.9258
lfingers 7.12502
lthumb 20.4834 -9.98628
rfemur 2.73423 14.5258 26.9958
rtibia 13.1065
rfoot -15.8468 -32.91
rtoes 5.10908
lfemur -6.42576 -21.6493 -21.6705
ltibia 23.399
lfoot -18.166 15.7164
ltoes -41.7716
39
root 9.22905 15.5112 23.2909 179.627 -4.39551 -179.424
lowerback 7.32759 3.45528 3.5865
upperback -4.90362 4.93244 -0.234033
thorax -8.98962 2.12271 -2.97332
lowerneck -0.212818 16.3539 9.61915
upperneck 2.22597 22.0093 -8.67484
head 2.68967 10.9315 -3.12788
rclavicle 1.24986e-014 1.50082e-014
rhumerus -48.6433 12.3643 -98.4041
rradius 34.6635
rwrist 14.5205
rhand -1.86908 -56.2106
rfingers 7.12502
rthumb 23.799 -84.7566
lclavicle 1.24986e-014 1.50082e-014
lhumerus -42.6112 -12.6449 94.6374
lradius 34.1501
lwrist -16.2126
lhand -5.3669 -38.9081
lfingers 7.12502
lthumb 20.4409 -9.96403
rfemur 2.70549 14.589 26.971
rtibia 13.1421
rfoot -15.8517 -32.9425
rtoes 5.10563
lfemur -6.40838 -21.6714 -21.7036
ltibia 23.3765
lfoot -18.0934 15.9625
ltoes -42.5368
40
root 9.22962 15.5104 23.2901 179.581 -4.4029 -179.419
lowerback 7.38454 3.45664 3.56194
upperback -4.90467 4.9359 -0.216849
thorax -9.02763 2.12536 -2.94644
lowerneck -0.203314 16.3291 9.65691
upperneck 2.24422 21.9782 -8.69145
head 2.69693 10.9163 -3.13907
rclavicle 2.96438e-014 1.1778e-014
rhumerus -48.6601 12.2362 -98.3043
rradius 34.8872
rwrist 14.1555
rhand -1.31962 -56.693
rfingers 7.12502
rthumb 24.3258 -85.1693
lclavicle 2.96438e-014 1.1778e-014
lhumerus -42.5983 -12.6324 94.663
lradius 34.1307
lwrist -16.1978
lhand -5.46992 -39.0431
lfingers 7.12502
lthumb 20.3418 -10.0884
rfemur 2.73989 14.6453 26.9992
rtibia 13.1799
rfoot -15.8532 -32.9858
rtoes 5.23009
lfemur -6.3465 -21.6198 -21.7086
ltibia 23.3578
lfoot -18.168 15.9213
ltoes -42.7073
41
root 9.22945 15.5098 23.2879 179.525 -4.42841 -179.445
lowerback 7.41224 3.44217 3.55668
upperback -4.8829 4.91659 -0.23707
thorax -9.0201 2.11685 -2.96347
lowerneck -0.169936 16.3223 9.77111
upperneck 2.20054 21.9736 -8.80552
head 2.70332 10.914 -3.18743
rclavicle 2.22825e-014 2.13694e-015
rhumerus -48.6512 12.1595 -98.2656
rradius 35.1046
rwrist 13.82
rhand -0.789069 -57.3132
rfingers 7.12502
rthumb 24.8344 -85.7204
lclavicle 2.22825e-014 2.13694e-015
lhumerus -42.6227 -12.7562 94.7194
lradius 34.3912
lwrist -15.6071
lhand -4.78472 -38.7072
lfingers 7.12502
lthumb 21.0002 -9.82417
rfemur 2.80555 14.5857 26.9878
rtibia 13.221
rfoot -15.8618 -32.9598
rtoes 5.38904
lfemur -6.25541 -21.5868 -21.7635
ltibia 23.3402
lfoot -18.2605 15.7881
ltoes -42.4204
